<mxfile host="app.diagrams.net" modified="2021-06-17T02:46:21.390Z" agent="5.0 (Macintosh; Intel Mac OS X 11_0_0) AppleWebKit/537.36 (KHTML, like Gecko) Chrome/86.0.4240.272 Whale/2.9.118.16 Safari/537.36" etag="WEwX3-3JTP78zcIiPTCt" version="14.6.11" type="github">
  <diagram id="kE8mJGLQwn88KNfwknXC" name="Page-1">
    <mxGraphModel dx="1136" dy="735" grid="1" gridSize="10" guides="1" tooltips="1" connect="1" arrows="1" fold="1" page="1" pageScale="1" pageWidth="827" pageHeight="1169" math="0" shadow="0">
      <root>
        <mxCell id="0" />
        <mxCell id="1" parent="0" />
        <mxCell id="mJZmfWPgpqEshg-i4K1A-1" value="CMS/MAPI" style="rounded=1;whiteSpace=wrap;html=1;" vertex="1" parent="1">
          <mxGeometry x="270" y="380" width="120" height="60" as="geometry" />
        </mxCell>
        <mxCell id="mJZmfWPgpqEshg-i4K1A-19" value="" style="group" vertex="1" connectable="0" parent="1">
          <mxGeometry x="580" y="130" width="220" height="150" as="geometry" />
        </mxCell>
        <mxCell id="mJZmfWPgpqEshg-i4K1A-7" value="" style="rounded=1;whiteSpace=wrap;html=1;" vertex="1" parent="mJZmfWPgpqEshg-i4K1A-19">
          <mxGeometry y="20" width="220" height="130" as="geometry" />
        </mxCell>
        <mxCell id="mJZmfWPgpqEshg-i4K1A-4" value="Owfs&lt;br&gt;(fade out 예정)" style="shape=cylinder3;whiteSpace=wrap;html=1;boundedLbl=1;backgroundOutline=1;size=15;" vertex="1" parent="mJZmfWPgpqEshg-i4K1A-19">
          <mxGeometry x="110" y="40" width="80" height="90" as="geometry" />
        </mxCell>
        <mxCell id="mJZmfWPgpqEshg-i4K1A-5" value="Nubes" style="shape=cylinder3;whiteSpace=wrap;html=1;boundedLbl=1;backgroundOutline=1;size=15;" vertex="1" parent="mJZmfWPgpqEshg-i4K1A-19">
          <mxGeometry x="20" y="40" width="80" height="90" as="geometry" />
        </mxCell>
        <mxCell id="mJZmfWPgpqEshg-i4K1A-8" value="Storage" style="text;html=1;align=center;verticalAlign=middle;resizable=0;points=[];autosize=1;strokeColor=none;" vertex="1" parent="mJZmfWPgpqEshg-i4K1A-19">
          <mxGeometry width="60" height="20" as="geometry" />
        </mxCell>
        <mxCell id="mJZmfWPgpqEshg-i4K1A-22" value="" style="group" vertex="1" connectable="0" parent="1">
          <mxGeometry x="580" y="520" width="290" height="200" as="geometry" />
        </mxCell>
        <mxCell id="mJZmfWPgpqEshg-i4K1A-20" value="" style="rounded=1;whiteSpace=wrap;html=1;" vertex="1" parent="mJZmfWPgpqEshg-i4K1A-22">
          <mxGeometry y="20" width="290" height="180" as="geometry" />
        </mxCell>
        <mxCell id="mJZmfWPgpqEshg-i4K1A-13" value="Malware Check" style="rounded=1;whiteSpace=wrap;html=1;" vertex="1" parent="mJZmfWPgpqEshg-i4K1A-22">
          <mxGeometry x="10" y="40" width="120" height="60" as="geometry" />
        </mxCell>
        <mxCell id="mJZmfWPgpqEshg-i4K1A-14" value="ASP&lt;br&gt;(동영상 인코딩)" style="rounded=1;whiteSpace=wrap;html=1;" vertex="1" parent="mJZmfWPgpqEshg-i4K1A-22">
          <mxGeometry x="10" y="120" width="120" height="60" as="geometry" />
        </mxCell>
        <mxCell id="mJZmfWPgpqEshg-i4K1A-15" value="MPS&lt;br&gt;(동영상 메타정보)" style="rounded=1;whiteSpace=wrap;html=1;" vertex="1" parent="mJZmfWPgpqEshg-i4K1A-22">
          <mxGeometry x="160" y="120" width="120" height="60" as="geometry" />
        </mxCell>
        <mxCell id="mJZmfWPgpqEshg-i4K1A-21" value="외부" style="text;html=1;align=center;verticalAlign=middle;resizable=0;points=[];autosize=1;strokeColor=none;" vertex="1" parent="mJZmfWPgpqEshg-i4K1A-22">
          <mxGeometry x="10" width="40" height="20" as="geometry" />
        </mxCell>
        <mxCell id="mJZmfWPgpqEshg-i4K1A-16" value="" style="rounded=1;whiteSpace=wrap;html=1;" vertex="1" parent="1">
          <mxGeometry x="580" y="320" width="460" height="180" as="geometry" />
        </mxCell>
        <mxCell id="mJZmfWPgpqEshg-i4K1A-9" value="DMS" style="rounded=1;whiteSpace=wrap;html=1;" vertex="1" parent="1">
          <mxGeometry x="590" y="340" width="120" height="60" as="geometry" />
        </mxCell>
        <mxCell id="mJZmfWPgpqEshg-i4K1A-10" value="UGS" style="rounded=1;whiteSpace=wrap;html=1;" vertex="1" parent="1">
          <mxGeometry x="590" y="420" width="120" height="60" as="geometry" />
        </mxCell>
        <mxCell id="mJZmfWPgpqEshg-i4K1A-11" value="API" style="rounded=1;whiteSpace=wrap;html=1;" vertex="1" parent="1">
          <mxGeometry x="740" y="340" width="120" height="60" as="geometry" />
        </mxCell>
        <mxCell id="mJZmfWPgpqEshg-i4K1A-12" value="EMS" style="rounded=1;whiteSpace=wrap;html=1;" vertex="1" parent="1">
          <mxGeometry x="740" y="420" width="120" height="60" as="geometry" />
        </mxCell>
        <mxCell id="mJZmfWPgpqEshg-i4K1A-17" value="내부" style="text;html=1;align=center;verticalAlign=middle;resizable=0;points=[];autosize=1;strokeColor=none;" vertex="1" parent="1">
          <mxGeometry x="590" y="300" width="40" height="20" as="geometry" />
        </mxCell>
        <mxCell id="mJZmfWPgpqEshg-i4K1A-23" value="Photo" style="rounded=1;whiteSpace=wrap;html=1;" vertex="1" parent="1">
          <mxGeometry x="890" y="340" width="120" height="60" as="geometry" />
        </mxCell>
      </root>
    </mxGraphModel>
  </diagram>
</mxfile>
